<svg xmlns="http://www.w3.org/2000/svg" xmlns:android="http://schemas.android.com/apk/res/android" width="512px" height="512px" viewportWidth="512" viewportHeight="512">
	<path d="M237.6,2.3c-1.3,2 -1.3,3.1 0.4,10.7 2.1,9.7 7.3,25.7 10.1,31.2 1.1,2.1 1.9,4 1.9,4.4 0,1 -11.3,-11.4 -22.3,-24.2 -4.7,-5.6 -9.3,-10.4 -10.1,-10.7 -0.8,-0.3 -2.5,0.2 -3.7,1.2l-2.3,1.8 2.3,8.9c2.6,10.7 9.8,29.1 15.2,39.3 2.2,4 3.8,7.5 3.6,7.8 -0.6,0.6 -18.9,-18.8 -27.3,-29 -8.4,-10.1 -11.4,-12.1 -14.1,-9.4 -1.6,1.6 -1.6,2.1 0.6,8.9 3.1,9.5 14,30.8 22.4,43.7 3.7,5.6 6.7,10.4 6.7,10.7 0,0.7 -15.6,-12.3 -26.7,-22.3 -5.1,-4.6 -10.1,-8.3 -11.1,-8.3 -2.4,-0 -4.2,1.9 -4.2,4.5 0,4.8 19,35.3 30.5,48.9 2.7,3.3 6.3,7.5 7.9,9.4 3.4,4 3.1,3.9 -9.5,-3.9 -4.6,-2.8 -12.5,-8.3 -17.6,-12 -5,-3.8 -9.7,-6.9 -10.5,-6.9 -2,-0 -3.8,2.1 -3.8,4.5 0,2.6 6.1,11.5 13.7,20.2 3,3.5 5.2,6.3 5,6.3 -0.3,-0 -5,-2 -10.4,-4.5 -8.6,-3.9 -10,-4.3 -11.8,-3.1 -3.2,2.1 -2.9,3.9 1.9,11 2.5,3.6 4.2,6.6 3.8,6.6 -0.5,-0 -30.1,-7.9 -66,-17.5 -35.8,-9.6 -66.3,-17.5 -67.6,-17.5 -3.1,-0 -5.1,3.2 -3.7,5.8 2.4,4.6 25.6,24.4 32.9,28.2 7,3.6 -4.6,1 -30.6,-6.7l-12.3,-3.6 -2.1,2.1c-1.6,1.6 -1.9,2.6 -1.2,4 2.4,5.1 26.1,23.2 41,31.3 4.1,2.3 7.4,4.2 7.4,4.4 0,1 -30.3,-6.3 -42.2,-10.1 -9.6,-3.2 -13.2,-2.9 -13.6,0.8 -0.4,3.2 1.5,5.1 12.6,12.5 11,7.2 21.1,12.6 35.7,19 6.6,2.9 11.3,5.3 10.5,5.3 -2.7,-0 -25.2,-2.8 -36.2,-4.6 -11.8,-1.8 -13.8,-1.4 -13.8,3.2 0,2.8 3,4.9 16.8,11.8 12.6,6.3 27.5,12.2 41.2,16.1l11.4,3.3 -12.4,0.7c-6.9,0.4 -17.4,0.3 -23.5,-0.3 -6,-0.5 -11.6,-0.7 -12.3,-0.5 -1.9,0.8 -2.7,5.3 -1.1,6.8 4.2,4.1 30.7,12 50.9,15.1 10.4,1.6 11.1,1.9 7.5,2.5 -2.2,0.5 -10.3,1.3 -18,2 -7.7,0.6 -14.6,1.6 -15.3,2.1 -1.8,1.5 -1.5,5.6 0.6,6.7 4.1,2.2 27.3,5.8 44.7,6.9l11,0.7 -7,2.2c-3.9,1.2 -9.8,2.9 -13.2,3.6 -7.6,1.8 -8.3,2.2 -8.3,5.1 0,3.7 2,4.5 13.1,5.7 11.6,1.2 28.2,0.6 41.6,-1.6 13.3,-2.2 13.3,-2.2 13.3,2.4 0,3.2 0.6,4.4 3.6,7.1 3.2,2.7 4.3,3.1 8,2.8l4.4,-0.3 0,4.3c0,3.5 0.6,4.9 2.9,7.3 3,2.9 4,3.2 9.9,2.9 2.9,-0.1 3.2,0.1 3.2,2.9 0,4.9 4.7,9.4 10.5,10 4.7,0.6 2,1.8 -95.3,41 -113.3,45.7 -104.3,41 -97.7,50.6 17.3,25.2 44.7,46.1 68.5,52.4 14.9,3.9 13.5,4.2 24.6,-5 17.2,-14.2 36.7,-28.5 66.8,-49.2l15.9,-10.9 12.6,2.1c15,2.5 29.4,4.1 37.5,4.1l5.9,-0 -0.6,7.2c-0.3,4 -1.2,17.3 -1.8,29.5 -1.1,18.2 -1,22.4 0,23.7 2.3,2.8 4.3,1.8 11.6,-5.3l7,-7 11,4.8c6.1,2.6 17,7 24.2,9.7 15.2,5.6 14.3,4.3 11.3,17.4 -2.4,10.4 -2.4,10.5 -0.4,12.4 2.2,2.3 19.6,2.3 21.8,-0 4,-4 0.6,-7.4 -7.5,-7.4 -6.7,-0 -6.5,0.5 -4.1,-9l1.7,-6.5 6.4,-0 6.4,-0 4.7,6c3.8,4.9 5.2,6 7.6,6 2.4,-0 3,-0.4 3.2,-2.8 0.3,-2 -1,-4.6 -4.4,-9.5 -2.6,-3.7 -5.3,-7 -5.8,-7.4 -0.6,-0.4 -4.1,-0.8 -7.8,-0.8 -3.8,-0 -6.8,-0.4 -6.8,-0.8 0,-0.8 12.4,-8.2 13.7,-8.2 0.4,0.1 3.3,3.3 6.3,7.2 3,3.9 6.5,7.7 7.8,8.6 2,1.3 2.4,1.3 4.2,-0.3 1.1,-1 2,-2.5 2,-3.3 0,-1.8 -15.6,-21.8 -17.7,-22.6 -1,-0.4 -5.2,1.4 -10.4,4.3l-8.8,5 -14,-6.6c-7.8,-3.7 -13.9,-6.8 -13.7,-7 0.2,-0.2 4.3,-0.8 9.1,-1.4 14.2,-1.6 14.7,-3.2 3.7,-13.8 -4.8,-4.7 -8.9,-9.9 -10.8,-13.6 -5.6,-10.7 -6.1,-9.9 6.8,-12.5 6.2,-1.2 12.4,-2.5 13.7,-2.8l2.3,-0.5 -0.6,9.9c-0.4,5.5 -0.9,12.4 -1.2,15.6 -0.5,4.8 -0.3,5.9 1.5,7.7 1.2,1.2 2.6,2.1 3.1,2.1 0.6,-0 4.2,-3.2 7.9,-7.2l6.8,-7.2 12.4,5.2c6.8,2.8 17.7,7.2 24.3,9.6 6.5,2.5 12,4.7 12.3,4.9 0.2,0.3 -0.5,5.1 -1.7,10.6 -1.2,5.6 -1.9,11.3 -1.6,12.6 0.6,2.5 0.8,2.5 11.6,2.5 9.4,-0 11.1,-0.2 11.8,-1.8 0.6,-0.9 0.6,-2.7 0.1,-4 -0.7,-2 -1.5,-2.2 -7.4,-2.2 -7.2,-0 -7.3,-0.2 -5.6,-7 0.5,-1.9 1.2,-4.7 1.5,-6.3 0.6,-2.6 0.8,-2.7 7.4,-2.7l6.7,0.1 4.3,6c4.6,6.4 6.6,7.8 9.1,6.2 3,-1.9 2.4,-5.1 -2.5,-12.1 -2.6,-3.7 -5.4,-7.3 -6.2,-8 -0.9,-0.7 -4.3,-1.2 -7.9,-1.2 -3.5,-0 -6.3,-0.3 -6.3,-0.8 0,-0.4 3.1,-2.4 6.8,-4.4l6.9,-3.7 6.6,8.4c6.9,8.7 9.1,10 12.1,6.9 0.9,-0.8 1.6,-1.8 1.6,-2 0,-2.9 -16.7,-23.4 -19,-23.4 -0.9,-0 -5.4,2.1 -9.9,4.6l-8.2,4.7 -13.7,-6.3c-7.5,-3.5 -14.1,-6.7 -14.5,-7.1 -0.5,-0.4 3.3,-1 8.3,-1.4 7,-0.6 9.7,-1.2 11.1,-2.6 3,-3 2.4,-4.3 -4.8,-9.8 -4.1,-3.1 -11.3,-11.9 -11.3,-13.8 0,-0.6 2.8,-1.3 6.3,-1.7 3.4,-0.4 9.6,-1.1 13.7,-1.6 15.1,-1.8 28.8,1.6 44.1,10.7 12.8,7.6 20.4,10.7 22.9,9.3 3.9,-2.1 2.3,-5.1 -8.3,-15.8 -9.9,-10.1 -10.1,-10.4 -6.7,-9.9 1.9,0.4 6.4,0.9 10,1.3 10.6,1.1 13.6,3.6 13.1,11.1 -0.2,3.2 2,6.3 4.5,6.3 2.3,-0 18.6,-15.1 20,-18.7 2.9,-6.8 1.2,-14 -4.3,-18.3 -1.5,-1.2 -6,-3.7 -10,-5.5 -6.2,-2.9 -7.3,-3.7 -7.3,-5.9 0,-4.9 -4.3,-8.2 -17.3,-13.1 -33.7,-13 -73.2,-31.1 -74.4,-34.2 -0.9,-2.4 2.7,-10.1 7.2,-15.1 2.5,-2.8 6.7,-5.9 10.2,-7.6 3.2,-1.5 7.8,-3.8 10.2,-5 2.5,-1.1 6.8,-4.4 9.7,-7.1 12.4,-12.2 16.6,-31.5 10.1,-47.2 -3,-7.2 -84,-137.3 -86.6,-139.1 -1.5,-1 -2.5,-1.1 -4,-0.3 -1.7,1 -2.1,2.3 -2.3,9.6l-0.3,8.4 -46.4,-51.9c-29.7,-33.4 -47,-52 -48.2,-52 -1,-0 -2.5,1 -3.3,2.3zM292.5,69c20.8,23.4 39.8,44.6 42.4,47.2 7.4,7.7 11.9,5.8 10.6,-4.5 -0.5,-3.3 -0.4,-4.8 0.3,-4.2 0.5,0.5 16.3,25.7 35.1,55.9l34.1,54.8 0,5.8c0,7.1 -2,14.1 -5.5,18.6 -3.1,4 -8.8,7.1 -20.5,10.9 -20.7,6.8 -28.9,14 -34,30 -0.7,2.2 -2.1,5 -3,6.2 -1,1.2 -2.5,6.4 -3.5,11.5 -1,5.1 -2.1,9.7 -2.6,10.2 -1.2,1.4 -9.8,-4.8 -13.6,-9.8 -4.5,-5.9 -6.5,-11.9 -6.5,-20.1 0,-7.8 1.6,-12.6 7.6,-22 5.9,-9.2 7.9,-16.4 7.4,-27.5 -0.3,-8.2 -0.8,-10.4 -3.7,-16.3 -4.8,-10.1 -11.7,-16.5 -23.8,-22.4 -8.3,-4 -9.8,-5 -8.7,-6.1 0.8,-0.7 1.4,-2.3 1.4,-3.6 0,-2.1 -1.9,-3.3 -14.2,-9.4 -23.6,-11.5 -40.2,-23.4 -59.7,-42.5 -12.1,-11.9 -31.1,-35.2 -31.1,-38.1 0,-0.3 4.6,3.2 10.3,7.7 5.6,4.6 16.3,12.9 23.7,18.4 7.4,5.5 17.3,13.5 22,17.8 9.9,9.2 23.5,19.4 33.8,25.5 6.4,3.7 7.6,4.1 9.7,3.2 2.7,-1.3 3.2,-3.9 1.3,-6.3 -0.7,-0.9 -4.9,-3.7 -9.3,-6.4 -17.1,-10.4 -36.4,-27.3 -51.1,-44.9 -8.7,-10.4 -21.8,-29 -27.4,-39.1l-3.3,-6 13.4,13c7.4,7.2 18.6,17.4 24.9,22.7 6.3,5.3 14.2,12.4 17.5,15.8 12.3,12.8 33.9,28.7 37.4,27.5 4.5,-1.4 3.7,-6.4 -1.7,-9.7 -30.2,-18.6 -61.1,-56.8 -73.6,-90.8 -1.7,-4.4 -1.5,-4.3 7.6,5.5 5,5.5 15.1,16.1 22.3,23.5 7.3,7.4 15.2,16.2 17.7,19.5 9.6,12.6 28.2,31.5 31,31.5 2,-0 3.8,-2 3.8,-4.3 0,-1.1 -4.4,-6.6 -10.3,-12.6 -17.3,-18 -30.2,-35.9 -40.2,-55.9 -4.6,-9.2 -11.5,-26 -11.5,-28 0,-1 3.5,2.8 43.5,47.8zM126.2,143.5c33.9,9.1 62.7,16.5 64,16.5 2.6,-0 4.8,-1.7 4.8,-3.5 0,-0.7 -1.3,-3.2 -2.9,-5.6 -1.7,-2.4 -2.8,-4.5 -2.6,-4.7 0.7,-0.7 114.1,52.2 117.5,54.8 5,3.9 8.3,11.1 8.8,19 0.5,8.5 -0.5,10.9 -10.8,24.5 -11.5,15.2 -13.5,19.7 -13.4,30.5 0,9.6 2.8,19 8.6,28.8 4.5,7.6 15.1,18 22.1,21.8l5.8,3 -15.4,17c-8.4,9.3 -15.8,16.9 -16.5,16.9 -0.7,-0 -1.8,-1.1 -2.5,-2.5 -1.6,-3.3 -4.9,-3.6 -9.3,-1.1 -4.5,2.7 -6.4,2.7 -6.4,-0 0,-3.2 -1.9,-5.9 -4.2,-5.9 -1.2,-0 -4.5,0.8 -7.5,1.7 -6.6,2.1 -8,1.2 -5.8,-4 2.8,-6.8 -1.1,-9.3 -9,-5.8 -6.4,2.8 -7.9,2.7 -7.1,-0.4 0.3,-1.4 0.9,-3.6 1.2,-5 0.8,-3.1 -1,-5.5 -4.1,-5.5 -1.2,-0 -4.8,0.9 -8,2 -8.5,2.9 -9.2,1.9 -4.4,-5.8 2.6,-4.2 2.9,-5.4 2,-7.1 -1.4,-2.5 -4.6,-2.7 -11.5,-0.6 -9.1,2.8 -10.6,1.6 -6.1,-5.1 1.9,-2.8 2.2,-4 1.4,-5.6 -1.6,-2.9 -3.1,-3.1 -11.1,-1.4 -5.9,1.2 -7.6,1.2 -8.6,0.2 -1,-1 -0.6,-2.1 2.3,-5.7 3.7,-4.7 4.3,-6.7 2.3,-8.7 -1.5,-1.5 -5.3,-1.5 -13.5,-0 -7.9,1.4 -9.4,0.5 -6.7,-4.1 1.3,-2.2 3,-3.4 5.9,-4.1 9,-2.3 33.4,-10.1 39.9,-12.7 7.7,-3.2 9.7,-5.3 8,-8.1 -1.8,-2.7 -6.6,-1.9 -20.9,3.2 -16.1,5.9 -35.7,10.9 -52.3,13.5 -12.1,1.9 -25.7,3.3 -25,2.6 1.4,-1.5 24.5,-9.4 28.8,-9.9 21.5,-2.7 49.6,-11.5 51.3,-16.1 1,-2.4 -1,-5.5 -3.6,-5.5 -1.2,-0 -5.4,1.3 -9.3,2.9 -19.6,8.3 -56.7,13.5 -80.4,11.3l-8.5,-0.8 6,-1.3c3.3,-0.7 9.4,-2.3 13.5,-3.6 5.3,-1.6 12.1,-2.6 23.5,-3.4 17.4,-1.2 29.5,-3 42,-6.3 9.2,-2.5 10.5,-3.2 10.5,-6.3 0,-4.6 -2.1,-4.9 -13.7,-2.2 -33.2,8 -60.3,8.9 -97.5,3.1 -6,-0.9 -10.8,-2 -10.8,-2.4 0,-0.4 6.2,-1 13.8,-1.3 7.5,-0.4 17.1,-1.1 21.2,-1.7 4.1,-0.5 18.1,-1.2 31,-1.4 21.3,-0.3 37.4,-1.9 43.3,-4.2 2.7,-1 3.1,-4.4 1,-6.6 -1.9,-1.9 -2.3,-1.9 -11.9,-0.3 -34.9,5.8 -77.4,1.2 -113.1,-12.1 -12.9,-4.8 -14.2,-5.6 -7.3,-4.9 14.4,1.5 26.7,2.4 39,3 7.4,0.4 18.5,1.6 24.5,2.7 13.5,2.5 49.9,3.8 53.3,1.9 2.5,-1.3 2.9,-5.2 0.9,-6.9 -0.8,-0.7 -7.5,-1.1 -17.7,-1 -25.2,-0 -48.9,-4.3 -75.5,-13.7 -10.9,-3.8 -36.9,-15.4 -36.2,-16.1 0.1,-0.2 4.3,0.6 9.2,1.7 10.4,2.2 30,5.4 43.5,6.9 5.2,0.6 11.5,1.6 14,2.1 17.4,4 48.3,6.9 52.1,4.9 2.4,-1.3 2.3,-5.8 -0.1,-7.1 -0.8,-0.4 -8.5,-1.2 -17.1,-1.8 -27.8,-1.9 -49.5,-7.7 -74.4,-20.1 -12.7,-6.3 -32.8,-19 -28,-17.6 6.8,1.9 39.7,9.8 48.5,11.6 5.8,1.2 13.6,3.3 17.3,4.6 17.2,6.1 43,11.8 45.9,10.3 2.1,-1.1 2.4,-5.2 0.5,-6.7 -0.7,-0.6 -6.9,-2.3 -13.7,-3.7 -30.6,-6.5 -60.4,-19.6 -82.7,-36.3 -7.5,-5.5 -8.6,-6.7 -5.5,-5.8 0.9,0.3 29.5,7.9 63.4,17.1zM236,152.1c10.9,5.6 35.7,21.2 31.4,19.8 -0.6,-0.2 -11.3,-5.1 -23.9,-10.9 -22.5,-10.4 -22.8,-10.6 -31.4,-18.7l-8.6,-8.3 9.5,5.6c5.2,3 15.6,8.6 23,12.5zM329,219c2.7,5.3 4.1,14 3,20.2 -1.1,7 -1.9,8.8 -7.8,18.6 -6,9.8 -7.6,15.9 -7,26.8 0.6,14.4 8.7,27 21.3,33.6 11.9,6.1 4.3,7.3 -8.4,1.3 -13.2,-6.3 -24.8,-20.4 -28.6,-35 -3.4,-13.1 -1.6,-18.6 11.7,-36.2 10.3,-13.8 12.2,-18.6 11.6,-29 -0.6,-8.3 0,-8.3 4.2,-0.3zM422.7,243.6c-0.6,7.9 -4.9,17.2 -10.4,22.6 -2.1,2 -8.5,6 -14.1,8.8 -12,5.9 -18.5,11.8 -22.8,20.7 -1.5,3.2 -2.9,6 -3,6.2 -0.7,0.9 -10.3,-7.6 -10.4,-9.1 0,-1 1,-4.7 2.1,-8.3 3.9,-11.7 10.5,-17 28.9,-23 4.7,-1.5 10.2,-3.6 12.3,-4.7 5.9,-3 12,-9.1 14.7,-14.7 1.3,-2.8 2.6,-5.1 2.8,-5.1 0.3,-0 0.2,2.9 -0.1,6.6zM374.5,313.9c16.4,10.1 45.4,23.4 76.5,35.1 10.2,3.8 12.6,5.1 12.8,6.9 0.2,1.2 -0.3,2.4 -1.2,2.7 -0.9,0.3 -12.1,-3.5 -25,-8.5 -13.1,-5.1 -24.2,-8.8 -25.1,-8.5 -0.8,0.4 -2,1.4 -2.5,2.4 -1.6,3 1.7,5.6 11.5,9.4l9,3.4 1.3,5.4c0.9,4 2.2,6.2 5.1,8.8l3.8,3.5 -5.4,-0.3c-9.2,-0.6 -10.6,2.4 -4.3,9.2l4.1,4.4 -8.8,-3.1c-7,-2.4 -11,-3.1 -19.4,-3.5 -10.8,-0.5 -30.2,1.5 -42.4,4.4 -3.3,0.7 -6.3,1.4 -6.7,1.4 -0.3,-0 -1.3,-1.9 -2.2,-4.3 -3.3,-9.4 -4.1,-15.4 -4.1,-31.7 0.1,-16 0.8,-23.3 4.2,-40.7l1.6,-8.3 4.6,3.5c2.5,1.9 8.2,5.7 12.6,8.4zM342.6,349c0.2,16.8 2,30.7 5,37.9 0.8,1.9 1.1,3.8 0.7,4.1 -1.9,1.7 -18.8,8.2 -28.3,10.9 -11.6,3.2 -24.7,5.7 -25.6,4.8 -0.3,-0.3 -1.2,-5.2 -2,-10.9 -1.7,-12.2 -1.7,-12.4 -4.3,-13.7 -1.5,-0.8 -2.4,-0.7 -4.1,0.7l-2.2,1.8 2.2,14.8c1.2,8.2 3,17.6 4,21 2.2,6.9 7.7,16.6 12.1,21.1 1.6,1.7 2.9,3.3 2.9,3.7 0,0.3 -3.9,0.8 -8.7,1.2 -11.6,1 -12.5,1.8 -11.7,10.3 0.4,3.4 0.4,6.3 0.2,6.3 -0.3,-0 -3.2,-1.2 -6.4,-2.6 -10.6,-4.7 -11,-4.8 -15.6,-0.6l-4,3.6 0.6,-5.4c0.3,-3 1.3,-17.8 2.2,-32.8 1.7,-29.3 1.6,-30.2 -3.2,-30.2 -3,-0 -4.4,2.7 -4.4,8.8 0,2.7 -0.2,5.1 -0.4,5.3 -1.2,1.1 -43,-3.2 -44.4,-4.5 -0.4,-0.5 21.2,-14.8 47.1,-31.3l14.9,-9.5 2.7,2.6c3.3,3.2 8.1,4.2 12.1,2.6 2.5,-1.1 3.4,-1 5.7,0.5 3.6,2.4 9.4,2.3 13,-0.3 1.5,-1.2 9.8,-10 18.3,-19.6 14,-15.9 15.8,-17.5 18.5,-17.3l3,0.2 0.1,16.5zM222.5,345.9c-1,1.7 -69.7,34.3 -70.4,33.5 -1,-1.1 -3.4,-8.4 -2.9,-8.8 0.1,-0.2 16,-6.6 35.3,-14.4 32.1,-12.9 35.1,-13.9 36.7,-12.5 1,0.9 1.6,1.9 1.3,2.2zM237.8,352.3l2.1,2.2 -31.1,17c-17.2,9.4 -34.7,18.9 -38.9,21.2l-7.7,4.2 -2.7,-4c-1.6,-2.1 -2.5,-4.3 -2.1,-4.7 0.8,-0.7 76.6,-37.9 77.7,-38.1 0.3,-0.1 1.5,0.9 2.7,2.2zM253,360.9c0.9,1.8 -0.1,2.7 -8.7,8.3 -5.4,3.4 -21.2,13.8 -35.1,23 -13.9,9.3 -26,16.8 -26.8,16.8 -1.8,-0 -12.4,-5.1 -12.4,-5.9 0.1,-0.8 79.1,-43.9 80.7,-44 0.7,-0.1 1.7,0.8 2.3,1.8zM448.2,364.5c0.5,1.9 -4.5,1.8 -5.9,-0.1 -0.7,-1 -1.3,-2.1 -1.3,-2.5 0,-1.1 6.9,1.4 7.2,2.6zM476.2,368.4c4.1,1.9 8.2,4.1 9.1,5.1 3,3 2.1,6.7 -2.8,11.5 -2.5,2.4 -4.5,3.9 -4.5,3.2 0,-1.9 -5.8,-7.9 -8.7,-9.1 -1.6,-0.6 -7.1,-1.7 -12.3,-2.4 -8.7,-1.3 -9.3,-1.5 -6.7,-2.5 1.6,-0.7 4.3,-2.3 6.1,-3.7 1.8,-1.4 4.1,-2.5 5.2,-2.5 1.4,-0 5.5,-1.7 7,-2.9 0.1,-0.1 3.5,1.4 7.6,3.3zM142.4,379c1,2.8 1.7,5.3 1.4,5.5 -0.2,0.2 -23.7,11.7 -52.3,25.6l-51.9,25.2 -3.4,-3.9c-1.9,-2.1 -4.7,-5.6 -6.4,-7.6l-2.9,-3.8 2.3,-1c3.7,-1.7 110.2,-44.8 110.9,-44.9 0.3,-0.1 1.3,2.2 2.3,4.9zM151.5,397c1.5,2.2 2.6,4.2 2.4,4.4 -0.2,0.2 -21.5,11.8 -47.3,25.9 -34,18.5 -47.4,25.3 -48.5,24.7 -3.2,-1.8 -11.6,-10.1 -10.6,-10.6 0.6,-0.3 23.1,-11.2 50,-24.4 27,-13.1 49.5,-23.9 50.1,-24 0.6,-0 2.4,1.8 3.9,4zM367.5,398.6c1.5,2.6 4.3,6.4 6.2,8.4l3.4,3.8 -5.8,0.7c-15.8,1.7 -15.9,1.7 -14.9,11l0.7,6.5 -5.8,-2.6c-12.3,-5.5 -12.4,-5.5 -16.9,-1l-3.4,3.4 0,-2.7c0,-1.6 0.3,-6.3 0.7,-10.6 0.6,-7.7 0.6,-7.7 4.2,-9.2 2,-0.8 8.3,-3.6 14.1,-6.3 5.8,-2.6 11.4,-5 12.5,-5.3 1.1,-0.2 2.1,-0.5 2.2,-0.6 0,-0 1.3,2 2.8,4.5zM165.6,410.8c2.3,1.5 5,3.2 6,3.8 1.1,0.7 1.7,1.4 1.4,1.6 -0.3,0.3 -11.3,8.2 -24.5,17.6 -13.2,9.4 -28.9,21.1 -34.9,25.9 -5.9,4.8 -11.6,9.3 -12.5,10 -1.2,0.9 -3.2,0.7 -8.9,-0.7 -7.8,-2.1 -24.9,-9.6 -23.9,-10.6 1.1,-1.1 91.2,-50.2 92.2,-50.3 0.6,-0 2.9,1.2 5.1,2.7zM393.4,442.1c-0.3,0.5 -2.6,-0 -5.2,-1 -2.6,-1 -8.6,-3.3 -13.4,-5.1 -7.5,-2.8 -8.8,-3.6 -8.8,-5.6 0,-2.1 0.7,-1.9 13.9,4.4 7.7,3.6 13.8,6.9 13.5,7.3zM306.9,469.5c11.5,5.3 15.1,7.5 12.2,7.5 -0.5,-0 -6.7,-2.2 -13.7,-4.9 -10.8,-4 -13,-5.2 -13.2,-7.1 -0.2,-1.2 0.1,-2.1 0.6,-1.9 0.6,0.2 6.9,3.1 14.1,6.4z" fill="#d32f2f" stroke="#blue"/>
</svg>
